<?xml version="1.0" encoding="utf-8"?>
<!-- Generator: Adobe Illustrator 21.1.0, SVG Export Plug-In . SVG Version: 6.00 Build 0)  -->
<!DOCTYPE svg PUBLIC "-//W3C//DTD SVG 1.1//EN" "http://www.w3.org/Graphics/SVG/1.1/DTD/svg11.dtd">
<svg version="1.1" id="Layer_1" xmlns="http://www.w3.org/2000/svg" xmlns:xlink="http://www.w3.org/1999/xlink" x="0px" y="0px"
	 viewBox="0 0 109 115.2" style="enable-background:new 0 0 109 115.2;" xml:space="preserve">
<style type="text/css">
	.st0{fill:none;stroke:#000000;stroke-width:25;stroke-miterlimit:10;}
</style>
<defs>
  <mask id="maskid" maskUnits="objectBoundingBox">
	<path d="M92,99.9c-25.3,0-50.6,0-75.9,0c0-5.1,0-10.2,0-15.4c17.9,0,35.7,0,53.6,0c0-6.2,0-12.3,0-18.6c-16.7,0-33.5,0-50.3,0
			c0-4.9,0-9.6,0-14.4c16.7,0,33.4,0,50.2,0c0-5.7,0-11.2,0-16.8c-17.7,0-35.4,0-53.2,0c0-5.2,0-10.3,0-15.5c25.2,0,50.3,0,75.4,0
			C92,46.1,92,73,92,99.9z"/>
</mask>
</defs>
<g>
	<path d="M92,99.9c-25.3,0-50.6,0-75.9,0c0-5.1,0-10.2,0-15.4c17.9,0,35.7,0,53.6,0c0-6.2,0-12.3,0-18.6c-16.7,0-33.5,0-50.3,0
		c0-4.9,0-9.6,0-14.4c16.7,0,33.4,0,50.2,0c0-5.7,0-11.2,0-16.8c-17.7,0-35.4,0-53.2,0c0-5.2,0-10.3,0-15.5c25.2,0,50.3,0,75.4,0
		C92,46.1,92,73,92,99.9z"/>
</g>
</svg>
